<svg width="48" height="42" viewBox="0 0 48 42" fill="none" xmlns="http://www.w3.org/2000/svg">
<path d="M3.80078 13.7404C3.80069 13.3406 3.8878 12.9457 4.05606 12.5831C4.22431 12.2205 4.46965 11.8989 4.77495 11.6409L14.393 3.39821C14.889 2.97902 15.5175 2.74902 16.1669 2.74902C16.8163 2.74902 17.4447 2.97902 17.9407 3.39821L27.5588 11.6409C27.8641 11.8989 28.1094 12.2205 28.2777 12.5831C28.4459 12.9457 28.5331 13.3406 28.533 13.7404V26.1065C28.533 26.8353 28.2434 27.5343 27.7281 28.0496C27.2127 28.565 26.5138 28.8545 25.7849 28.8545H6.5488C5.81998 28.8545 5.12101 28.565 4.60566 28.0496C4.0903 27.5343 3.80078 26.8353 3.80078 26.1065V13.7404Z" fill="white" stroke="#0066CC" stroke-width="2.74802" stroke-linecap="round" stroke-linejoin="round"/>
<path d="M21.1223 28.0416V17.7781C21.1223 17.4378 20.9485 17.1115 20.6392 16.8709C20.3299 16.6303 19.9103 16.4951 19.4728 16.4951H12.8748C12.4374 16.4951 12.0178 16.6303 11.7085 16.8709C11.3991 17.1115 11.2253 17.4378 11.2253 17.7781V28.0416" fill="white"/>
<path d="M21.1223 28.0416V17.7781C21.1223 17.4378 20.9485 17.1115 20.6392 16.8709C20.3299 16.6303 19.9103 16.4951 19.4728 16.4951H12.8748C12.4374 16.4951 12.0178 16.6303 11.7085 16.8709C11.3991 17.1115 11.2253 17.4378 11.2253 17.7781V28.0416" stroke="#0066CC" stroke-width="2.74802" stroke-linecap="round" stroke-linejoin="round"/>
<path d="M45.8649 23.918C45.8649 30.6097 38.4414 37.5789 35.9486 39.7313C35.7164 39.9059 35.4337 40.0003 35.1431 40.0003C34.8526 40.0003 34.5699 39.9059 34.3377 39.7313C31.8449 37.5789 24.4214 30.6097 24.4214 23.918C24.4214 21.0744 25.551 18.3473 27.5617 16.3366C29.5724 14.3259 32.2995 13.1963 35.1431 13.1963C37.9867 13.1963 40.7138 14.3259 42.7245 16.3366C44.7353 18.3473 45.8649 21.0744 45.8649 23.918Z" fill="white" stroke="#0066CC" stroke-width="2.75466" stroke-linecap="round" stroke-linejoin="round"/>
<path d="M35.143 27.9388C37.3635 27.9388 39.1636 26.1387 39.1636 23.9181C39.1636 21.6976 37.3635 19.8975 35.143 19.8975C32.9224 19.8975 31.1223 21.6976 31.1223 23.9181C31.1223 26.1387 32.9224 27.9388 35.143 27.9388Z" stroke="#0066CC" stroke-width="2.75466" stroke-linecap="round" stroke-linejoin="round"/>
</svg>
